HIERARCHY
ROOT Hips
{
	OFFSET 0.00000 0.00000 0.00000
	CHANNELS 6 Xposition Yposition Zposition Zrotation Yrotation Xrotation 
	JOINT LHipJoint
	{
		OFFSET 0 0 0
		CHANNELS 3 Zrotation Yrotation Xrotation
		JOINT LeftUpLeg
		{
			OFFSET 1.35324 -1.81393 0.86676
			CHANNELS 3 Zrotation Yrotation Xrotation
			JOINT LeftLeg
			{
				OFFSET 2.44396 -6.71474 0.00000
				CHANNELS 3 Zrotation Yrotation Xrotation
				JOINT LeftFoot
				{
					OFFSET 2.78389 -7.64869 0.00000
					CHANNELS 3 Zrotation Yrotation Xrotation
					JOINT LeftToeBase
					{
						OFFSET 0.15837 -0.43512 1.94704
						CHANNELS 3 Zrotation Yrotation Xrotation
						End Site
						{
							OFFSET 0.00000 -0.00000 1.00735
						}
					}
				}
			}
		}
	}
	JOINT RHipJoint
	{
		OFFSET 0 0 0
		CHANNELS 3 Zrotation Yrotation Xrotation
		JOINT RightUpLeg
		{
			OFFSET -1.14956 -1.81393 0.86676
			CHANNELS 3 Zrotation Yrotation Xrotation
			JOINT RightLeg
			{
				OFFSET -2.55632 -7.02343 0.00000
				CHANNELS 3 Zrotation Yrotation Xrotation
				JOINT RightFoot
				{
					OFFSET -2.63038 -7.22691 0.00000
					CHANNELS 3 Zrotation Yrotation Xrotation
					JOINT RightToeBase
					{
						OFFSET -0.22277 -0.61205 2.06087
						CHANNELS 3 Zrotation Yrotation Xrotation
						End Site
						{
							OFFSET -0.00000 -0.00000 1.07867
						}
					}
				}
			}
		}
	}
	JOINT LowerBack
	{
		OFFSET 0 0 0
		CHANNELS 3 Zrotation Yrotation Xrotation
		JOINT Spine
		{
			OFFSET -0.05682 2.18266 -0.21665
			CHANNELS 3 Zrotation Yrotation Xrotation
			JOINT Spine1
			{
				OFFSET 0.08791 2.18267 0.00700
				CHANNELS 3 Zrotation Yrotation Xrotation
				JOINT Neck
				{
					OFFSET 0 0 0
					CHANNELS 3 Zrotation Yrotation Xrotation
					JOINT Neck1
					{
						OFFSET -0.14851 1.58495 0.25390
						CHANNELS 3 Zrotation Yrotation Xrotation
						JOINT Head
						{
							OFFSET 0.13566 1.62237 -0.28476
							CHANNELS 3 Zrotation Yrotation Xrotation
							End Site
							{
								OFFSET 0.05601 1.65818 -0.12921
							}
						}
					}
				}
				JOINT LeftShoulder
				{
					OFFSET 0 0 0
					CHANNELS 3 Zrotation Yrotation Xrotation
					JOINT LeftArm
					{
						OFFSET 3.23337 0.97114 -0.51072
						CHANNELS 3 Zrotation Yrotation Xrotation
						JOINT LeftForeArm
						{
							OFFSET 5.19964 -0.00068 -0.00051
							CHANNELS 3 Zrotation Yrotation Xrotation
							JOINT LeftHand
							{
								OFFSET 3.32189 -0.00000 0.00000
								CHANNELS 3 Zrotation Yrotation Xrotation
								JOINT LeftFingerBase
								{
									OFFSET 0 0 0
									CHANNELS 3 Zrotation Yrotation Xrotation
									JOINT LeftHandIndex1
									{
										OFFSET 0.64562 -0.00000 0.00000
										CHANNELS 3 Zrotation Yrotation Xrotation
										End Site
										{
											OFFSET 0.52051 -0.00000 0.00000
										}
									}
								}
								JOINT LThumb
								{
									OFFSET 0 0 0
									CHANNELS 3 Zrotation Yrotation Xrotation
									End Site
									{
										OFFSET 0.52846 -0.00000 0.52846
									}
								}
							}
						}
					}
				}
				JOINT RightShoulder
				{
					OFFSET 0 0 0
					CHANNELS 3 Zrotation Yrotation Xrotation
					JOINT RightArm
					{
						OFFSET -2.95712 1.24697 -0.52388
						CHANNELS 3 Zrotation Yrotation Xrotation
						JOINT RightForeArm
						{
							OFFSET -5.65950 -0.00000 -0.00000
							CHANNELS 3 Zrotation Yrotation Xrotation
							JOINT RightHand
							{
								OFFSET -3.37604 -0.00000 -0.00000
								CHANNELS 3 Zrotation Yrotation Xrotation
								JOINT RightFingerBase
								{
									OFFSET 0 0 0
									CHANNELS 3 Zrotation Yrotation Xrotation
									JOINT RightHandIndex1
									{
										OFFSET -0.82470 -0.00000 -0.00000
										CHANNELS 3 Zrotation Yrotation Xrotation
										End Site
										{
											OFFSET -0.66490 -0.00000 -0.00000
										}
									}
								}
								JOINT RThumb
								{
									OFFSET 0 0 0
									CHANNELS 3 Zrotation Yrotation Xrotation
									End Site
									{
										OFFSET -0.67505 -0.00000 0.67505
									}
								}
							}
						}
					}
				}
			}
		}
	}
}
MOTION
Frames: 14
Frame Time: .0083333
9.4915 17.1046 -24.8462 0.2525 -36.1705 21.1269 0.0000 0.0000 0.0000 -29.2157 -8.3041 -8.7838 3.5379 11.5187 34.0497 0.8387 -9.7814 -16.7078 0.2170 2.9987 8.2752 0.0000 0.0000 0.0000 8.9783 14.4820 -59.7994 -10.9263 -17.8988 62.5420 -1.3229 2.0567 -21.1676 -0.0360 -1.2242 3.3658 -9.3181 -1.2857 11.8629 2.9308 -2.8075 0.0154 8.9166 -1.0562 -6.0659 -10.3769 -1.7339 -14.5654 12.0633 -2.7507 20.4819 5.6062 -0.8720 9.1117 0.0000 -0.0000 0.0000 -81.8556 -20.6483 9.6194 15.8346 -25.2958 -3.5750 -0.0000 -0.0000 4.5491 8.4450 30.9848 4.3708 -7.1250 0.0000 -0.0000 -26.2555 59.2647 -9.5555 0.0000 -0.0000 0.0000 81.8460 -4.3442 14.6551 -28.5994 39.6622 -10.5040 0.0000 -0.0000 -16.5544 -12.1702 19.1709 -4.0510 7.1250 -0.0000 -0.0000 10.4156 -10.6507 8.4557
9.4167 17.0642 -24.6879 0.1837 -35.7777 21.4750 0.0000 0.0000 0.0000 -29.1254 -8.3388 -8.3721 3.5008 11.4647 33.8636 0.8128 -9.8066 -16.4785 0.0266 -1.0535 -2.8960 0.0000 0.0000 0.0000 8.9060 14.6687 -60.8334 -10.9665 -17.9187 62.6728 -1.4613 0.5151 -22.7077 -0.0432 1.3410 -3.6876 -9.3082 -1.4461 11.9357 2.9813 -3.0225 0.0262 9.0022 -1.1634 -6.0455 -10.2575 -1.8750 -15.3723 12.1196 -2.9711 21.0736 5.6104 -0.9382 9.4973 -0.0000 0.0000 0.0000 -81.4279 -21.0260 9.3840 15.7700 -25.2078 -3.5474 -0.0000 -0.0000 5.0807 8.7127 30.6491 4.4670 -7.1250 0.0000 -0.0000 -25.7044 59.0267 -9.1894 -0.0000 0.0000 0.0000 81.9406 -4.3660 13.8240 -28.6500 39.7078 -10.5364 0.0000 -0.0000 -14.4861 -13.0648 18.7391 -4.2636 7.1250 -0.0000 -0.0000 9.8293 -10.9956 7.8941
9.3377 17.0231 -24.4917 0.1599 -35.5873 21.6728 0.0000 0.0000 0.0000 -29.3873 -8.5325 -7.4011 3.4172 11.3416 33.4407 0.8050 -9.4002 -16.3322 0.3449 -3.7734 -10.4401 0.0000 0.0000 0.0000 8.8288 14.6463 -61.6399 -11.0457 -17.9574 62.9298 -1.3919 2.6577 -21.5949 -0.0036 -0.3866 1.0623 -9.3056 -1.5976 11.8261 3.0524 -3.2079 0.0707 9.0966 -1.2659 -5.8905 -9.9468 -1.7061 -15.1945 11.9738 -2.7621 20.7063 5.5120 -0.8353 9.3029 0.0000 0.0000 0.0000 -80.9975 -21.2782 9.4965 15.6927 -25.1023 -3.5146 -0.0000 -0.0000 4.8780 8.9582 30.7559 4.6088 -7.1250 0.0000 -0.0000 -25.5433 59.1771 -9.2202 0.0000 0.0000 0.0000 81.7627 -4.6760 14.0458 -29.2470 40.2392 -10.9199 0.0000 -0.0000 -14.4062 -13.3323 18.8098 -4.3695 7.1250 -0.0000 -0.0000 9.6568 -10.8980 7.7710
9.2622 16.9656 -24.2898 -0.0799 -35.4837 21.8631 0.0000 0.0000 0.0000 -29.4214 -8.0785 -6.5535 3.3317 11.2136 33.0037 0.7528 -9.6142 -15.8876 0.3118 -3.5897 -9.9250 0.0000 0.0000 0.0000 8.9465 14.7297 -62.3291 -11.1630 -18.0139 63.3098 -1.3254 4.0162 -20.8130 -0.0173 -0.8484 2.3318 -9.1927 -1.6943 11.9706 3.1945 -3.3257 0.0633 9.2153 -1.3212 -5.9510 -10.6664 -1.5339 -13.5430 12.7851 -2.5314 19.0375 5.8750 -0.7485 8.4140 0.0000 -0.0000 0.0000 -80.5883 -21.4178 9.7336 15.5648 -24.9270 -3.4605 -0.0000 -0.0000 4.3970 10.3304 30.3398 5.2606 -7.1250 0.0000 -0.0000 -23.8053 59.1122 -8.5083 0.0000 -0.0000 0.0000 81.4901 -5.1681 14.4228 -29.9986 40.8922 -11.4087 0.0000 -0.0000 -14.7865 -13.6886 18.5064 -4.4207 7.1250 -0.0000 -0.0000 9.4190 -11.1674 7.5214
9.1839 16.9111 -24.0800 -0.2955 -35.4566 21.9770 0.0000 0.0000 0.0000 -29.5503 -7.6532 -5.5658 3.2345 11.0653 32.5003 0.7155 -9.4332 -15.4973 0.3607 -3.8582 -10.6782 0.0000 0.0000 0.0000 9.1421 14.7704 -62.9011 -11.2812 -18.0699 63.6913 -1.2925 4.1024 -20.5311 -0.0015 0.2500 -0.6869 -9.0782 -1.7916 12.0864 3.2584 -3.4437 0.1278 9.2412 -1.3866 -5.9223 -10.0310 -1.5575 -14.9326 12.2699 -2.5930 20.3230 5.6364 -0.7406 9.1040 -0.0000 -0.0000 0.0000 -79.9900 -21.7164 9.5554 15.2790 -24.5333 -3.3409 -0.0000 -0.0000 4.0838 11.7275 28.9794 5.7433 -7.1250 0.0000 -0.0000 -21.3456 58.1750 -7.0901 -0.0000 -0.0000 0.0000 81.4357 -5.4332 14.3238 -30.4992 41.3175 -11.7379 0.0000 -0.0000 -14.6541 -13.5529 18.8882 -4.4620 7.1250 -0.0000 -0.0000 9.5151 -10.7967 7.6736
9.0990 16.8628 -23.8750 -0.3726 -35.3954 22.0602 0.0000 0.0000 0.0000 -29.7211 -7.2780 -4.6940 3.1487 10.9319 32.0507 0.6564 -9.2566 -14.8849 0.4698 -4.3959 -12.1933 0.0000 0.0000 0.0000 8.7015 15.0706 -63.1911 -11.4718 -18.1583 64.3045 -1.2625 6.7783 -20.0809 -0.2200 -3.0193 8.3324 -9.2001 -1.9119 12.2014 3.3705 -3.6233 0.1660 9.4687 -1.4740 -5.8910 -9.6434 -1.4478 -15.3065 11.9434 -2.4442 20.4968 5.4793 -0.6636 9.2072 -0.0000 0.0000 0.0000 -79.5869 -21.8394 9.1172 15.1103 -24.2995 -3.2712 -0.0000 -0.0000 4.0763 10.7377 29.3786 5.3149 -7.1250 0.0000 -0.0000 -22.6492 58.3268 -7.6357 -0.0000 0.0000 0.0000 81.3499 -5.5509 14.1502 -30.8105 41.5781 -11.9439 0.0000 -0.0000 -14.2262 -13.3992 19.5308 -4.5534 7.1250 -0.0000 -0.0000 9.6290 -10.1665 7.8935
9.0060 16.8130 -23.6715 -0.4481 -35.3056 22.2130 0.0000 0.0000 0.0000 -29.8222 -6.9416 -3.8956 3.0561 10.7854 31.5595 0.5564 -9.3803 -13.8948 0.3797 -3.9576 -10.9575 0.0000 0.0000 0.0000 8.6015 15.2132 -63.6274 -11.6562 -18.2415 64.8948 -1.1933 7.9854 -19.5369 -0.3408 -3.7513 10.3780 -9.4127 -1.9537 12.2770 3.5329 -3.7067 0.1459 9.7922 -1.5047 -5.9125 -9.7870 -1.3613 -14.7709 12.1512 -2.3290 19.9094 5.5638 -0.6145 8.8946 0.0000 0.0000 0.0000 -79.5350 -21.6907 9.0070 15.1775 -24.3928 -3.2989 -0.0000 -0.0000 4.2486 9.8381 30.7139 5.0616 -7.1250 0.0000 -0.0000 -24.6111 59.3386 -8.9533 0.0000 0.0000 0.0000 81.2172 -5.8722 14.2962 -31.4555 42.1088 -12.3742 0.0000 -0.0000 -14.5916 -13.8895 19.1907 -4.6470 7.1250 -0.0000 -0.0000 9.3039 -10.4574 7.5637
8.9068 16.7530 -23.4712 -0.5156 -35.0499 22.4822 0.0000 0.0000 0.0000 -29.7440 -6.3377 -3.2290 2.9527 10.6181 31.0024 0.4644 -9.5894 -12.9674 0.7726 -5.6125 -15.6642 0.0000 0.0000 0.0000 8.6930 15.2178 -64.2694 -11.8738 -18.3368 65.5883 -1.1217 8.3993 -18.9733 -0.2430 -3.1722 8.7586 -9.5889 -2.0532 12.2041 3.7256 -3.8481 0.0805 10.1281 -1.5664 -5.8846 -10.1904 -1.3501 -14.2299 12.5695 -2.3184 19.4695 5.7621 -0.6147 8.6510 -0.0000 -0.0000 0.0000 -79.2627 -21.6046 9.0700 15.1498 -24.3544 -3.2875 -0.0000 -0.0000 4.0957 10.0194 30.8817 5.1815 -7.1250 0.0000 -0.0000 -24.5633 59.5308 -9.0488 -0.0000 -0.0000 0.0000 81.0673 -6.3392 15.1495 -32.6570 43.0647 -13.1873 0.0000 -0.0000 -17.0926 -15.4925 17.6701 -4.8092 7.1250 -0.0000 -0.0000 8.2177 -11.8295 6.4266
8.8095 16.6877 -23.2692 -0.6773 -34.5815 22.8537 0.0000 0.0000 0.0000 -29.5267 -5.8635 -2.5111 2.8619 10.4681 30.5061 0.4245 -9.2737 -12.4268 1.2789 -7.1668 -20.2105 0.0000 0.0000 0.0000 8.9908 15.0218 -64.9247 -12.1016 -18.4333 66.3104 -1.0359 8.7195 -18.2800 -0.1304 -2.3274 6.4114 -9.5977 -2.3061 12.0949 3.9727 -4.1634 0.0376 10.4462 -1.7256 -5.7741 -10.2874 -1.3909 -14.5173 12.6296 -2.3662 19.7458 5.8095 -0.6307 8.8058 -0.0000 -0.0000 0.0000 -78.7863 -21.6940 8.4695 14.9282 -24.0460 -3.1966 -0.0000 -0.0000 4.0590 10.2678 29.7629 5.1385 -7.1250 0.0000 -0.0000 -23.4187 58.5745 -8.0548 -0.0000 -0.0000 0.0000 80.8412 -6.3689 14.1536 -32.3593 42.8318 -12.9844 0.0000 -0.0000 -13.8955 -13.7629 19.9085 -4.7678 7.1250 -0.0000 -0.0000 9.4046 -9.7482 7.7849
8.7104 16.6285 -23.0270 -1.1591 -34.5649 22.9443 0.0000 0.0000 0.0000 -29.5312 -5.5797 -1.2145 2.7834 10.3359 30.0714 0.3864 -8.4201 -11.7286 0.9728 -6.2790 -17.5961 0.0000 0.0000 0.0000 9.5791 15.0389 -64.7552 -12.3310 -18.5271 67.0341 -0.9336 9.1138 -17.4431 -0.1043 -2.0825 5.7337 -9.2837 -2.3936 12.1020 4.0805 -4.2271 0.1913 10.3826 -1.7839 -5.6092 -10.0216 -1.4097 -14.7847 12.5107 -2.4233 19.9078 5.7231 -0.6418 8.9146 0.0000 -0.0000 0.0000 -78.1910 -21.8065 7.7885 14.6796 -23.6979 -3.0960 -0.0000 -0.0000 3.8778 10.1625 29.2155 5.0002 -7.1250 0.0000 -0.0000 -23.1132 58.0528 -7.6488 0.0000 -0.0000 0.0000 80.7820 -6.7076 15.3319 -33.5799 43.7711 -13.8216 0.0000 -0.0000 -16.7323 -15.4973 18.0223 -4.9031 7.1250 -0.0000 -0.0000 8.2244 -11.4705 6.4935
8.6099 16.5773 -22.7845 -1.3964 -34.4706 23.0674 0.0000 0.0000 0.0000 -29.5850 -5.4635 -0.3454 2.7473 10.2743 29.8697 0.2736 -8.3690 -10.2692 0.8163 -5.7654 -16.1051 0.0000 0.0000 0.0000 10.0390 14.9195 -64.7002 -12.5835 -18.6266 67.8267 -0.8446 8.9007 -16.6142 -0.2703 -3.3445 9.2395 -9.1087 -2.5019 12.1113 4.1746 -4.3436 0.1443 10.4043 -1.8415 -5.6420 -9.6424 -1.3458 -14.6176 12.2221 -2.3733 19.8594 5.5547 -0.6238 8.8536 0.0000 -0.0000 0.0000 -77.7772 -21.5077 7.3479 14.6281 -23.6254 -3.0753 -0.0000 -0.0000 3.7806 9.6912 29.7070 4.8374 -7.1250 0.0000 -0.0000 -23.9622 58.3971 -8.1523 0.0000 -0.0000 0.0000 80.5925 -7.2111 15.7465 -34.2302 44.2546 -14.2735 0.0000 -0.0000 -17.1018 -15.9015 17.8623 -4.9940 7.1250 -0.0000 -0.0000 7.9543 -11.5905 6.2560
8.5096 16.5269 -22.5391 -1.5461 -34.2290 23.1110 0.0000 0.0000 0.0000 -29.6190 -5.3987 0.4167 2.7704 10.3137 29.9988 0.1735 -8.2919 -8.8112 0.5777 -4.8670 -13.5295 0.0000 0.0000 0.0000 10.7073 14.4266 -64.5773 -12.8864 -18.7408 68.7724 -0.8240 7.7988 -16.2849 -0.3052 -3.5517 9.8186 -9.1164 -2.6308 12.2815 4.4551 -4.5178 0.0284 10.7700 -1.9090 -5.7971 -9.5363 -1.2523 -14.6049 11.8202 -2.2035 20.1388 5.4222 -0.5772 8.9197 -0.0000 -0.0000 0.0000 -77.9616 -20.8631 6.4875 14.7820 -23.8416 -3.1373 -0.0000 -0.0000 4.6508 9.6226 29.9691 4.8410 -7.1250 0.0000 -0.0000 -24.2352 58.6190 -8.3833 -0.0000 -0.0000 0.0000 80.1049 -7.6162 16.0138 -34.6412 44.5542 -14.5611 0.0000 -0.0000 -17.1573 -16.6536 17.4998 -5.1399 7.1250 -0.0000 -0.0000 7.4472 -11.8801 5.8051
8.4085 16.4794 -22.2995 -1.7370 -33.8186 23.3034 0.0000 0.0000 0.0000 -29.4781 -5.5254 0.8279 2.8673 10.4770 30.5357 0.0819 -8.1478 -7.2562 0.4085 -4.1031 -11.3670 0.0000 0.0000 0.0000 11.4338 13.8816 -64.4589 -13.2498 -18.8705 69.8997 -0.8923 5.6188 -16.8489 -0.1619 -2.5922 7.1453 -9.0403 -2.8081 12.3074 4.7533 -4.7298 0.0041 11.0938 -2.0153 -5.7654 -9.7582 -1.2215 -14.7850 11.7969 -2.0929 20.2452 5.4717 -0.5395 8.9777 0.0000 -0.0000 0.0000 -77.8459 -20.5370 5.8536 14.8196 -23.8941 -3.1525 -0.0000 -0.0000 5.2415 9.7700 30.0919 4.9344 -7.1250 0.0000 -0.0000 -24.1815 58.7626 -8.4477 0.0000 -0.0000 0.0000 79.7348 -7.6386 16.1324 -34.8921 44.7349 -14.7374 0.0000 -0.0000 -17.2315 -17.2486 17.0630 -5.2054 7.1250 -0.0000 -0.0000 7.0386 -12.2641 5.4249
8.3066 16.4375 -22.0644 -1.8996 -33.2571 23.7176 0.0000 0.0000 0.0000 -29.1632 -5.8285 0.7297 3.0075 10.7072 31.2986 -0.0378 -8.1793 -4.9218 0.0828 -1.8555 -5.1066 0.0000 0.0000 0.0000 12.0786 13.2850 -64.4725 -13.6344 -18.9994 71.0846 -0.9800 3.4049 -17.8771 -0.0453 -1.3742 3.7791 -8.6876 -3.0856 12.0519 4.9004 -5.0236 -0.0440 11.0666 -2.1795 -5.6155 -9.8590 -1.2194 -14.8997 11.9337 -2.0814 20.1908 5.5391 -0.5247 8.9813 0.0000 -0.0000 0.0000 -77.2030 -20.3780 5.4603 14.7082 -23.7380 -3.1075 -0.0000 -0.0000 5.2720 9.4697 30.3892 4.8231 -7.1250 0.0000 -0.0000 -24.7239 58.9637 -8.7729 0.0000 -0.0000 0.0000 79.6096 -7.6552 16.3160 -35.2260 44.9728 -14.9729 0.0000 -0.0000 -17.5067 -17.3086 16.9358 -5.1870 7.1250 -0.0000 -0.0000 6.9943 -12.3885 5.3720
